<?xml version="1.0" standalone="no"?>
<!DOCTYPE svg PUBLIC "-//W3C//DTD SVG 20010904//EN"
 "http://www.w3.org/TR/2001/REC-SVG-20010904/DTD/svg10.dtd">
<svg version="1.0" xmlns="http://www.w3.org/2000/svg"
 width="420.000000pt" height="420.000000pt" viewBox="0 0 420.000000 420.000000"
 preserveAspectRatio="xMidYMid meet">

<g transform="translate(0.000000,420.000000) scale(0.100000,-0.100000)"
fill="#000000" stroke="none">
<path d="M1859 3969 c-60 -9 -252 -82 -257 -99 -2 -5 -10 -10 -18 -10 -8 0
-14 -4 -14 -10 0 -5 -7 -10 -15 -10 -8 0 -15 -5 -15 -10 0 -6 -8 -14 -17 -17
-25 -10 -127 -109 -158 -153 -18 -27 -42 -45 -80 -60 -63 -26 -100 -63 -110
-110 -4 -19 -20 -50 -36 -68 -57 -64 -72 -108 -67 -192 4 -70 9 -85 64 -186
68 -125 80 -156 98 -239 11 -53 15 -60 36 -60 20 0 28 9 41 44 l16 44 63 -94
c105 -157 159 -221 290 -338 128 -115 184 -152 263 -171 64 -17 118 10 213
103 71 70 76 73 87 53 15 -28 16 -198 2 -261 -6 -28 -18 -64 -27 -80 -9 -17
-21 -42 -27 -58 -13 -32 -52 -58 -143 -93 -47 -18 -85 -43 -131 -85 -36 -32
-68 -59 -71 -59 -3 0 -28 20 -56 45 -28 25 -73 56 -100 70 -28 14 -50 27 -50
30 0 2 19 34 42 70 85 136 54 234 -109 347 -60 42 -79 61 -106 112 -40 77
-101 113 -202 123 -129 12 -238 -37 -328 -148 -67 -84 -77 -108 -77 -191 0
-167 63 -269 238 -386 54 -36 62 -55 41 -95 -10 -18 -14 -46 -18 -130 -1 -14
-7 -16 -40 -11 -48 8 -61 -9 -96 -119 -28 -87 -33 -212 -15 -366 13 -114 70
-223 156 -302 27 -24 162 -126 211 -159 12 -8 75 -54 140 -101 251 -183 261
-190 446 -281 216 -107 323 -147 399 -152 71 -3 75 -2 183 84 111 87 200 185
300 329 28 39 68 98 90 129 59 83 156 303 169 385 6 41 15 67 23 67 7 0 34
-14 60 -30 77 -49 194 -80 237 -64 34 13 21 37 -95 176 -40 48 -85 176 -93
268 -9 88 -18 419 -14 490 1 36 2 211 2 390 -2 284 -4 340 -23 445 -12 66 -26
149 -31 184 -10 66 -13 77 -52 201 -31 102 -124 282 -190 372 -65 87 -190 208
-270 261 -141 93 -298 159 -421 176 -88 12 -255 13 -338 0z m416 -74 c248 -70
412 -184 578 -400 138 -180 256 -567 272 -895 3 -58 9 -181 14 -275 4 -93 5
-237 0 -320 -18 -338 -8 -563 31 -687 17 -57 65 -154 110 -225 8 -12 11 -25 8
-28 -14 -15 -173 86 -264 167 -33 29 -79 68 -102 87 -44 34 -119 121 -186 212
-42 60 -148 272 -166 334 -21 73 -45 254 -61 450 -8 102 -19 174 -35 226 -45
144 -142 258 -278 324 -63 31 -231 80 -339 99 -65 12 -279 84 -332 113 -134
72 -230 163 -285 272 -30 60 -22 134 18 165 56 44 94 49 236 32 246 -29 414
-103 606 -263 60 -51 116 -93 124 -93 27 0 26 31 -1 67 -69 90 -341 251 -513
303 -41 13 -120 31 -175 40 -113 19 -119 25 -69 82 79 90 219 178 339 213 132
39 333 39 470 0z m-1060 -612 c31 -57 35 -70 25 -89 -12 -22 -12 -25 23 -164
7 -30 11 -66 7 -80 l-6 -24 -26 34 c-34 45 -109 196 -119 238 -12 53 27 172
51 157 5 -3 25 -35 45 -72z m264 -239 c109 -54 332 -129 426 -144 84 -13 196
-45 247 -71 70 -36 166 -121 211 -188 53 -77 87 -188 87 -283 0 -206 64 -517
137 -662 39 -78 39 -76 -11 -198 -35 -86 -75 -257 -96 -414 -6 -44 -19 -111
-30 -148 -23 -81 -145 -306 -166 -306 -9 0 -36 22 -62 48 -36 37 -83 66 -204
125 -146 73 -249 107 -419 141 -15 3 -29 14 -32 25 -2 10 -18 27 -33 37 -190
116 -312 241 -342 348 -34 121 -32 295 4 385 25 64 17 82 -53 116 -169 83
-248 215 -223 372 24 143 120 235 276 264 127 24 185 -4 243 -116 31 -58 45
-74 91 -101 82 -48 140 -112 142 -155 1 -59 -20 -113 -59 -151 -32 -31 -47
-37 -98 -43 -93 -10 -115 -16 -115 -30 0 -22 12 -25 124 -34 120 -9 137 -17
255 -127 l66 -61 68 63 c79 73 182 129 257 139 75 10 82 -5 20 -45 -33 -21
-58 -47 -72 -74 -11 -22 -26 -48 -32 -56 -7 -8 -20 -42 -30 -75 -29 -98 -76
-194 -100 -201 -11 -4 -47 -6 -80 -6 -83 1 -178 50 -279 142 -73 66 -97 77
-97 45 0 -19 139 -145 203 -183 66 -40 143 -62 215 -62 49 0 55 3 92 43 38 40
94 162 130 284 15 48 52 87 118 124 57 31 75 68 47 99 -10 11 -29 20 -42 20
-30 0 -29 18 1 78 42 84 59 294 30 392 -8 30 -19 75 -22 99 -11 71 -34 66 -77
-18 -31 -62 -103 -143 -157 -177 -84 -53 -156 -22 -328 143 -226 217 -367 428
-405 610 -21 101 -14 113 41 68 24 -20 84 -56 133 -81z m1221 -1562 c54 -72
126 -149 225 -241 49 -46 93 -89 97 -96 31 -52 -92 -344 -230 -543 -140 -202
-353 -417 -434 -437 -33 -8 -141 15 -249 55 -96 35 -202 91 -319 170 -47 31
-107 70 -135 85 -27 15 -90 60 -140 99 -49 40 -101 77 -115 83 -14 6 -71 45
-126 86 -94 70 -155 132 -198 199 -78 120 -80 568 -3 568 19 0 35 -32 49 -101
24 -123 132 -268 270 -362 53 -36 59 -47 25 -47 -33 0 -109 51 -147 99 -18 23
-39 41 -46 41 -65 0 48 -132 154 -181 53 -24 212 -70 351 -100 256 -56 434
-167 564 -353 21 -30 26 -31 53 -11 18 14 18 16 2 26 -31 18 -23 79 16 131 45
59 100 159 124 228 23 63 58 229 65 310 3 30 13 78 21 105 9 28 27 88 41 134
37 122 35 121 85 53z"/>
</g>
</svg>
